<svg aria-hidden="true" style="position: absolute; width: 0; height: 0; overflow: hidden;" version="1.1" xmlns="http://www.w3.org/2000/svg" xmlns:xlink="http://www.w3.org/1999/xlink">
<defs>
<symbol id="burger" viewBox="0 0 32 32">
<path d="M2.857 13.334c0-0.631 0.512-1.143 1.143-1.143v0h18.666c0.631 0 1.143 0.512 1.143 1.143s-0.512 1.143-1.143 1.143v0h-18.666c-0.631 0-1.143-0.512-1.143-1.143v0zM2.857 8c0-0.631 0.512-1.143 1.143-1.143v0h24c0.631 0 1.143 0.512 1.143 1.143s-0.512 1.143-1.143 1.143v0h-24c-0.631 0-1.143-0.512-1.143-1.143v0zM2.857 18.666c0-0.631 0.512-1.143 1.143-1.143v0h24c0.631 0 1.143 0.512 1.143 1.143s-0.512 1.143-1.143 1.143v0h-24c-0.631 0-1.143-0.512-1.143-1.143v0zM2.857 24c0-0.631 0.512-1.143 1.143-1.143v0h18.666c0.631 0 1.143 0.512 1.143 1.143s-0.512 1.143-1.143 1.143v0h-18.666c-0.631 0-1.143-0.512-1.143-1.143v0z"></path>
</symbol>
</defs>
</svg>
