<svg xmlns="http://www.w3.org/2000/svg" aria-hidden="true">
	<defs>
		<symbol id="book" viewBox="0 0 35 35">
			<path fill="#929292" d="M8.722 28h14.556c2.608 0 4.722-2.114 4.722-4.722v-14.556c0-2.608-2.114-4.722-4.722-4.722h-14.556c-2.608 0-4.722 2.114-4.722 4.722v14.556c0 2.608 2.114 4.722 4.722 4.722z">
			</path>
			<path fill="#fff" style="fill: var(--color2, #fff)" d="M15.333 22.667c-1.565-2.903-5.333-3.333-8-0.667v-10.667c2.667-2.667 6-2 8 0v11.333z">
			</path>
			<path fill="#fff" style="fill: var(--color2, #fff)" d="M16.667 22.667c1.565-2.903 5.333-3.333 8-0.667v-10.667c-2.667-2.667-6-2-8 0v11.333z">
			</path>
		</symbol>
		<symbol id="amazon" viewBox="0 0 106 32">
			<path d="M65.76 25c-6.154 4.536-15.073 6.956-22.753 6.956-10.768 0-20.462-3.983-27.796-10.607-0.576-0.521-0.060-1.231 0.631-0.825 7.915 4.605 17.701 7.375 27.81 7.375 6.818 0 14.317-1.411 21.213-4.338 1.042-0.443 1.913 0.682 0.894 1.438z">
			</path>
			<path d="M68.318 22.073c-0.784-1.005-5.2-0.475-7.182-0.24-0.604 0.074-0.696-0.452-0.152-0.83 3.517-2.475 9.288-1.761 9.961-0.931 0.673 0.834-0.175 6.619-3.48 9.38-0.507 0.424-0.991 0.198-0.765-0.364 0.742-1.853 2.406-6.006 1.618-7.016z">
			</path>
			<path d="M61.275 3.529v-2.406c0-0.364 0.277-0.608 0.608-0.608h10.773c0.346 0 0.622 0.249 0.622 0.608v2.060c-0.005 0.346-0.295 0.797-0.811 1.512l-5.582 7.97c2.074-0.051 4.264 0.258 6.145 1.318 0.424 0.24 0.539 0.59 0.572 0.936v2.568c0 0.35-0.387 0.761-0.793 0.549-3.314-1.738-7.716-1.927-11.381 0.018-0.373 0.203-0.765-0.203-0.765-0.553v-2.438c0-0.392 0.005-1.060 0.396-1.655l6.467-9.274h-5.628c-0.346 0-0.622-0.244-0.622-0.604z">
			</path>
			<path d="M21.978 18.542h-3.277c-0.313-0.023-0.562-0.258-0.585-0.558v-16.82c0-0.337 0.281-0.604 0.631-0.604h3.056c0.318 0.014 0.572 0.258 0.595 0.562v2.199h0.060c0.797-2.125 2.296-3.116 4.315-3.116 2.051 0 3.333 0.991 4.255 3.116 0.793-2.125 2.595-3.116 4.527-3.116 1.374 0 2.876 0.567 3.794 1.839 1.037 1.415 0.825 3.471 0.825 5.273l-0.005 10.616c0 0.337-0.281 0.608-0.632 0.608h-3.273c-0.327-0.023-0.59-0.286-0.59-0.608v-8.915c0-0.71 0.065-2.48-0.092-3.153-0.244-1.129-0.977-1.447-1.927-1.447-0.793 0-1.623 0.53-1.959 1.378s-0.304 2.268-0.304 3.222v8.915c0 0.337-0.281 0.608-0.631 0.608h-3.273c-0.332-0.023-0.59-0.286-0.59-0.608l-0.005-8.915c0-1.876 0.309-4.637-2.019-4.637-2.355 0-2.263 2.692-2.263 4.637v8.915c0 0.337-0.281 0.608-0.631 0.608z">
			</path>
			<path d="M82.552 0.206c4.863 0 7.495 4.176 7.495 9.486 0 5.13-2.909 9.201-7.495 9.201-4.776 0-7.375-4.176-7.375-9.38 0-5.236 2.632-9.307 7.375-9.307zM82.58 3.64c-2.415 0-2.568 3.291-2.568 5.342 0 2.056-0.032 6.444 2.54 6.444 2.54 0 2.66-3.54 2.66-5.697 0-1.42-0.060-3.116-0.489-4.462-0.369-1.171-1.102-1.627-2.143-1.627z">
			</path>
			<path d="M96.353 18.542h-3.264c-0.327-0.023-0.59-0.286-0.59-0.608l-0.005-16.825c0.028-0.309 0.3-0.549 0.632-0.549h3.038c0.286 0.014 0.521 0.207 0.585 0.47v2.572h0.060c0.917-2.3 2.203-3.397 4.467-3.397 1.47 0 2.904 0.53 3.826 1.982 0.857 1.346 0.857 3.609 0.857 5.236v10.588c-0.037 0.295-0.309 0.53-0.632 0.53h-3.287c-0.3-0.023-0.549-0.244-0.581-0.53v-9.136c0-1.839 0.212-4.531-2.051-4.531-0.797 0-1.53 0.535-1.895 1.346-0.461 1.028-0.521 2.051-0.521 3.185v9.058c-0.005 0.337-0.29 0.608-0.641 0.608z">
			</path>
			<path d="M52.687 10.508v-0.71c-2.369 0-4.872 0.507-4.872 3.3 0 1.415 0.733 2.374 1.991 2.374 0.922 0 1.747-0.567 2.268-1.489 0.645-1.134 0.613-2.199 0.613-3.476zM55.992 18.496c-0.217 0.194-0.53 0.207-0.774 0.078-1.088-0.903-1.281-1.323-1.881-2.185-1.798 1.835-3.070 2.383-5.402 2.383-2.757 0-4.905-1.701-4.905-5.107 0-2.66 1.443-4.471 3.494-5.356 1.779-0.784 4.264-0.922 6.163-1.139v-0.424c0-0.779 0.060-1.701-0.396-2.374-0.401-0.604-1.166-0.853-1.839-0.853-1.249 0-2.365 0.641-2.637 1.968-0.055 0.295-0.272 0.585-0.567 0.599l-3.181-0.341c-0.267-0.060-0.562-0.277-0.489-0.687 0.733-3.854 4.213-5.015 7.329-5.015 1.595 0 3.678 0.424 4.937 1.632 1.595 1.489 1.443 3.476 1.443 5.638v5.107c0 1.535 0.636 2.208 1.235 3.038 0.212 0.295 0.258 0.65-0.009 0.871-0.668 0.558-1.858 1.595-2.512 2.176l-0.009-0.009z">
			</path>
			<path d="M9.721 10.508v-0.71c-2.369 0-4.872 0.507-4.872 3.3 0 1.415 0.733 2.374 1.991 2.374 0.922 0 1.747-0.567 2.268-1.489 0.645-1.134 0.613-2.199 0.613-3.476zM13.026 18.496c-0.217 0.194-0.53 0.207-0.774 0.078-1.088-0.903-1.281-1.323-1.881-2.185-1.798 1.835-3.070 2.383-5.402 2.383-2.757 0-4.905-1.701-4.905-5.107 0-2.66 1.443-4.471 3.494-5.356 1.779-0.784 4.264-0.922 6.163-1.139v-0.424c0-0.779 0.060-1.701-0.396-2.374-0.401-0.604-1.166-0.853-1.839-0.853-1.249 0-2.365 0.641-2.637 1.968-0.055 0.295-0.272 0.585-0.567 0.599l-3.181-0.341c-0.267-0.060-0.562-0.277-0.489-0.687 0.733-3.854 4.213-5.015 7.329-5.015 1.595 0 3.678 0.424 4.937 1.632 1.595 1.489 1.443 3.476 1.443 5.638v5.107c0 1.535 0.636 2.208 1.235 3.038 0.212 0.295 0.258 0.65-0.009 0.871-0.668 0.558-1.858 1.595-2.512 2.176l-0.009-0.009z">
			</path>
		</symbol>
		<symbol id="book-shop" viewBox="0 0 34 32">
			<path d="M9.333 5.139c-4 1.988-7.442 3.806-7.661 4-1.067 0.921-1.261 5.503-0.291 6.812 0.315 0.436 2.982 1.915 8.121 4.485 8.412 4.242 8.145 4.024 8.364 6.497 0.145 1.358-0.267 3.733-0.679 3.976-0.097 0.073-3.588-1.576-7.758-3.636-4.145-2.085-7.588-3.733-7.661-3.661-0.073 0.049-0.073 0.218 0.024 0.339 0.17 0.291 14.764 7.564 15.2 7.564 0.509 0 14.909-7.248 15.297-7.709 1.236-1.43 1.188-6.352-0.073-7.151-0.267-0.17-2.376 0.8-7.709 3.467-7.976 3.976-7.661 3.903-8.242 2.206-0.655-2.012-0.145-4.824 1.042-5.721 0.412-0.291 3.879-2.109 7.733-4.024 3.83-1.915 6.958-3.539 6.958-3.612 0-0.194-14.739-7.515-15.103-7.515-0.145 0.024-3.564 1.673-7.564 3.685zM4.921 13.285c0.218 0.824 0.145 2.691-0.073 2.836-0.388 0.242-2.327-0.945-2.182-1.358 0.073-0.194 0.121-0.945 0.097-1.697v-1.333l1.018 0.558c0.582 0.315 1.091 0.776 1.139 0.994zM7.394 14.133c0.485 0.412 0.679 0.848 0.776 1.697 0.218 1.891-0.63 2.424-1.891 1.164-0.558-0.582-0.703-0.921-0.703-1.77 0-1.673 0.679-2.085 1.818-1.091zM10.764 16.024c0.606 0.727 0.824 1.867 0.485 2.739-0.242 0.63-1.455 0.485-2.012-0.242-0.509-0.63-0.727-2.715-0.339-3.079 0.388-0.388 1.285-0.121 1.867 0.582zM12.655 16.752c0.364 0.194 0.436 0.412 0.339 0.849-0.097 0.339-0.049 0.582 0.097 0.582 0.121 0 0.242-0.218 0.242-0.461 0-0.339 0.121-0.436 0.509-0.339 0.679 0.194 0.848 0.752 0.364 1.115-0.388 0.291-0.388 0.388 0.097 1.479 0.267 0.655 0.461 1.236 0.388 1.285-0.049 0.049-0.752-0.242-1.576-0.655-1.382-0.703-1.479-0.8-1.309-1.406 0.121-0.364 0.17-1.115 0.17-1.697-0.049-1.115-0.024-1.139 0.679-0.752zM31.515 20.121c0 0.485-0.218 0.97-0.63 1.382-0.436 0.436-0.582 0.776-0.485 1.188 0.121 0.436 0 0.63-0.509 0.921l-0.679 0.339v-3.758l0.849-0.388c1.236-0.558 1.455-0.509 1.455 0.315zM28.703 21.648c0.509 1.455-1.188 4.073-2.23 3.418-0.849-0.533-0.655-2.594 0.364-3.588 0.8-0.8 1.552-0.752 1.867 0.17zM25.333 24c0 1.77-0.049 1.939-0.558 2.182-0.558 0.242-0.558 0.218-0.412-0.509 0.145-0.582 0.097-0.727-0.145-0.655-0.194 0.073-0.339 0.412-0.339 0.776 0 0.582-0.63 1.358-1.067 1.358-0.073 0-0.121-0.824-0.121-1.842 0.024-1.818 0.218-2.255 0.994-2.279 0.218 0 0.267 0.242 0.145 0.776-0.145 0.727-0.121 0.776 0.267 0.461 0.291-0.242 0.364-0.533 0.267-0.994-0.121-0.509-0.024-0.703 0.412-0.921 0.315-0.145 0.558-0.267 0.558-0.267 0-0.024 0 0.849 0 1.915zM21.794 25.236c-0.194 0.097-0.388 0.073-0.485-0.073s-0.291-0.17-0.436-0.097c-0.485 0.315-0.267 0.63 0.436 0.63 0.388 0 0.752 0.145 0.849 0.364 0.291 0.8-0.582 2.061-1.479 2.061-0.291 0-0.558 0.097-0.558 0.242 0 0.533-0.63 0.194-0.679-0.364-0.049-0.582 0.049-0.655 1.018-0.703 0.267-0.024 0.509-0.17 0.582-0.364s0-0.267-0.17-0.17c-0.533 0.339-1.236-0.097-1.236-0.776 0-0.727 0.849-1.745 1.479-1.745 0.242 0 0.509-0.145 0.63-0.315 0.121-0.194 0.218-0.049 0.267 0.412 0.049 0.388-0.049 0.776-0.218 0.897z">
			</path>
			<path d="M3.636 13.455c0 0.194 0.121 0.364 0.242 0.364 0.145 0 0.242-0.17 0.242-0.364s-0.097-0.364-0.242-0.364c-0.121 0-0.242 0.17-0.242 0.364z">
			</path>
			<path d="M3.636 14.764c0 0.267 0.097 0.509 0.218 0.509 0.436 0 0.509-0.436 0.145-0.727-0.315-0.242-0.364-0.218-0.364 0.218z">
			</path>
			<path d="M6.594 15.539c0.048 0.582 0.218 1.067 0.388 1.139 0.242 0.073 0.291-0.17 0.242-0.945-0.048-0.582-0.218-1.067-0.388-1.139-0.242-0.073-0.291 0.17-0.242 0.945z">
			</path>
			<path d="M9.649 16.655c-0.145 0.727 0.097 1.527 0.461 1.527 0.242 0 0.315-0.242 0.267-0.897-0.073-0.945-0.582-1.382-0.727-0.63z">
			</path>
			<path d="M12.848 19.612c0 0.291 0.121 0.509 0.242 0.509 0.145 0 0.242-0.145 0.242-0.339s-0.097-0.436-0.242-0.509c-0.121-0.073-0.242 0.073-0.242 0.339z">
			</path>
			<path d="M30.303 20.873c0 0.267 0.121 0.412 0.242 0.339 0.145-0.073 0.242-0.315 0.242-0.509s-0.097-0.339-0.242-0.339c-0.121 0-0.242 0.218-0.242 0.509z">
			</path>
			<path d="M27.006 22.4c-0.194 0.752-0.049 1.721 0.267 1.721 0.145 0 0.267-0.509 0.315-1.164 0.073-1.188-0.315-1.6-0.582-0.558z">
			</path>
			<path d="M24.315 14.012c-3.903 1.964-7.103 3.685-7.103 3.855 0 0.315 14.376-6.739 14.667-7.2 0.339-0.558-0.824-0.049-7.564 3.345z">
			</path>
			<path d="M24.364 15.442c-6.521 3.273-7.564 3.879-7.248 4.17 0.17 0.194 14.618-7.103 14.739-7.442 0.073-0.145 0-0.291-0.17-0.267-0.17 0-3.442 1.6-7.321 3.539z">
			</path>
			<path d="M24.485 16.873c-6.933 3.467-7.685 3.903-7.394 4.17 0.194 0.218 14.618-7.030 14.764-7.394 0.073-0.17 0-0.291-0.17-0.291-0.17 0.024-3.394 1.6-7.2 3.515z">
			</path>
			<path d="M24.436 18.448c-6.57 3.273-8 4.097-7.224 4.097 0.364 0 14.521-7.030 14.667-7.297 0.412-0.63-0.994-0.024-7.442 3.2z">
			</path>
			<path d="M2.23 18.23c0.121 0.315 1.115 0.849 9.236 4.994 3.297 1.673 5.261 2.545 5.261 2.352 0-0.291-13.891-7.636-14.424-7.636-0.073 0-0.121 0.121-0.073 0.291z">
			</path>
			<path d="M2.182 19.685c0 0.17 3.273 1.988 7.273 4.024 4.945 2.521 7.273 3.588 7.273 3.345 0-0.218-1.745-1.236-4.655-2.715-2.57-1.285-5.794-2.933-7.152-3.636-2.667-1.43-2.739-1.455-2.739-1.018z">
			</path>
			<path d="M2.182 21.139c0 0.17 3.273 1.988 7.273 4.024 4.921 2.521 7.273 3.612 7.273 3.345 0-0.218-1.915-1.309-5.139-2.958-2.836-1.43-6.061-3.055-7.152-3.636-2.182-1.164-2.255-1.212-2.255-0.776z">
			</path>
			<path d="M2.23 22.57c0.049 0.121 1.818 1.139 3.951 2.255 8.752 4.533 10.57 5.406 10.497 5.042-0.073-0.315-13.77-7.539-14.327-7.564-0.121 0-0.17 0.121-0.121 0.267z">
			</path>
		</symbol>
	</defs>
</svg>
