<svg aria-hidden="true" style="position: absolute; width: 0; height: 0; overflow: hidden;" version="1.1"
	xmlns="http://www.w3.org/2000/svg" xmlns:xlink="http://www.w3.org/1999/xlink">
	<defs>
		<symbol id="align-left" viewBox="0 0 32 32">
			<path
				d="M2.857 13.337c0-0.631 0.512-1.143 1.143-1.143v0h18.663c0.631 0 1.143 0.512 1.143 1.143s-0.512 1.143-1.143 1.143v0h-18.663c-0.631 0-1.143-0.512-1.143-1.143v0zM2.857 8c0-0.631 0.512-1.143 1.143-1.143v0h24c0.631 0 1.143 0.512 1.143 1.143s-0.512 1.143-1.143 1.143v0h-24c-0.631 0-1.143-0.512-1.143-1.143v0zM2.857 18.663c0-0.631 0.512-1.143 1.143-1.143v0h24c0.631 0 1.143 0.512 1.143 1.143s-0.512 1.143-1.143 1.143v0h-24c-0.631 0-1.143-0.512-1.143-1.143v0zM2.857 24c0-0.631 0.512-1.143 1.143-1.143v0h18.663c0.631 0 1.143 0.512 1.143 1.143s-0.512 1.143-1.143 1.143v0h-18.663c-0.631 0-1.143-0.512-1.143-1.143v0z">
			</path>
		</symbol>
		<symbol id="caret-down" viewBox="0 0 28 32">
			<path fill="#fff" style="fill: var(--color1, #fff)"
				d="M5.908 12h16.492l-7.409 8.394c-0.204 0.234-0.503 0.382-0.836 0.382-0 0-0 0-0 0h0c-0 0-0 0-0 0-0.333 0-0.632-0.147-0.835-0.38l-0.001-0.001-7.409-8.394z">
			</path>
		</symbol>
		<symbol id="uil_cart" viewBox="0 0 32 32">
			<path
				d="M25.328 9.328h-4v-1.328c0-2.943-2.385-5.328-5.328-5.328s-5.328 2.385-5.328 5.328v0 1.328h-4c-0.005-0-0.010-0-0.016-0-0.733 0-1.328 0.595-1.328 1.328 0 0.006 0 0.011 0 0.017v-0.001 14.656c0 2.209 1.791 4 4 4v0h13.344c2.209 0 4-1.791 4-4v0-14.656c0-0.005 0-0.010 0-0.016 0-0.733-0.595-1.328-1.328-1.328-0.006 0-0.011 0-0.017 0h0.001zM13.328 8c0-1.476 1.196-2.672 2.672-2.672s2.672 1.196 2.672 2.672v0 1.328h-5.344v-1.328zM24 25.328c0 0.005 0 0.010 0 0.016 0 0.733-0.595 1.328-1.328 1.328-0 0-0 0-0 0h-13.344c-0 0-0 0-0 0-0.733 0-1.328-0.595-1.328-1.328 0-0.006 0-0.011 0-0.017v0.001-13.328h2.672v1.328c0 0.733 0.595 1.328 1.328 1.328s1.328-0.595 1.328-1.328v-1.328h5.344v1.328c0 0.733 0.595 1.328 1.328 1.328s1.328-0.595 1.328-1.328v0-1.328h2.672v13.328z">
			</path>
		</symbol>
		<symbol id="bookshelfTextLogo" viewBox="0 0 178 32">
			<path
				d="M22.171 8.526c0-4.731-3.497-7.383-9.531-7.383h-12.64v29.417h13.326c6.103 0 10.011-2.926 10.011-8.594 0-4.411-2.651-6.674-5.714-7.2v-0.091c2.423-0.823 4.571-2.514 4.571-6.126zM4.891 13.326v-8.069h7.863c2.926 0 4.526 1.44 4.526 4.023 0 2.606-1.326 4-4.8 4h-7.611zM4.891 16.983h8.594c3.086 0 4.937 1.669 4.937 4.663 0 2.766-1.257 4.731-5.463 4.731h-8.069v-9.417zM35.886 31.154c-6.583 0-10.56-4.571-10.56-11.109s3.977-11.109 10.56-11.109 10.583 4.571 10.583 11.109c0 6.537-4 11.109-10.583 11.109zM35.886 27.611c4.114 0 6.263-3.246 6.263-7.543 0-4.389-2.149-7.589-6.263-7.589s-6.24 3.2-6.24 7.566c0 4.343 2.126 7.566 6.24 7.566zM58.903 31.154c-6.583 0-10.56-4.571-10.56-11.109s3.977-11.109 10.56-11.109 10.583 4.571 10.583 11.109c0 6.537-4 11.109-10.583 11.109zM58.903 27.611c4.114 0 6.263-3.246 6.263-7.543 0-4.389-2.149-7.589-6.263-7.589s-6.24 3.2-6.24 7.566c0 4.343 2.126 7.566 6.24 7.566zM72.457 1.143v29.394h4.343v-7.611l2.903-2.743 6.629 10.354h5.189l-8.846-13.211 8-7.817h-5.326l-8.549 8.457v-16.869h-4.343zM101.943 17.829c-3.063-0.686-5.394-0.869-5.394-2.994 0-1.486 1.394-2.469 3.977-2.469 3.383 0 4.206 1.669 4.503 3.314h4.183c-0.274-3.657-2.994-6.743-8.709-6.743-5.257 0-8.32 2.743-8.32 6.217 0 4.777 4.526 5.44 7.863 6.217 3.086 0.731 5.6 0.937 5.6 3.566 0 1.326-1.28 2.811-4.297 2.811-4.434 0-5.417-1.943-5.623-4.206h-4.206c0.229 4.457 3.131 7.611 9.92 7.611 5.097 0 8.549-2.514 8.549-6.537 0-5.029-4.183-5.874-8.046-6.789zM124.114 8.937c-3.52 0-5.714 1.646-6.811 3.291h-0.091v-11.086h-4.32v29.417h4.32v-12.8c0-3.109 2.263-5.143 5.44-5.143 2.994 0 4.183 1.829 4.183 4.663v13.28h4.366v-14.537c0-4.8-3.086-7.086-7.086-7.086zM144.457 27.611c-3.84 0-6.103-2.903-6.103-6.446h16.137c0-7.497-3.337-12.229-10.126-12.229-6.331 0-10.331 4.274-10.331 11.109 0 6.583 4 11.109 10.537 11.109 5.394 0 8.526-3.040 9.6-7.040h-4.343c-0.366 1.28-1.806 3.497-5.371 3.497zM144.366 12.366c3.497 0 5.806 2.331 5.806 5.577h-11.817c0-3.246 2.514-5.577 6.011-5.577zM157.531 1.143v29.394h4.343v-29.394h-4.343zM176 4.663v-3.52c-0.869-0.16-1.829-0.274-2.88-0.274-3.451 0-5.349 1.554-5.349 5.989v2.674h-2.971v3.543h2.994v17.486h4.343v-17.509h3.863v-3.543h-3.886v-2.286c0-2.4 1.097-2.674 3.886-2.56z">
			</path>
		</symbol>
		<symbol id="logo" viewBox="0 0 32 32">
			<path fill="#f6f6f6" style="fill: var(--color1, #f6f6f6)" d="M0 0l16.347 16.173 15.653 15.827v-32h-32z"></path>
			<path fill="#f6f6f6" style="fill: var(--color1, #f6f6f6)"
				d="M4.453 4.227l11.947 11.827 11.253 11.493h-23.2v-23.32z"></path>
			<path fill="#4f2ee8" style="fill: var(--color2, #4f2ee8)"
				d="M27.733 27.613l-11.947-11.827-11.253-11.48h23.2v23.293z"></path>
			<path fill="#4f2ee8" style="fill: var(--color2, #4f2ee8)" d="M9.253 9.027l13.6 13.6h-13.6v-13.6z"></path>
			<path fill="#f6f6f6" style="fill: var(--color1, #f6f6f6)" d="M9.253 9.027l13.6 13.6v-13.6h-13.6z"></path>
		</symbol>
	</defs>
</svg>
