<svg aria-hidden="true" style="position: absolute; width: 0; height: 0; overflow: hidden;" version="1.1" xmlns="http://www.w3.org/2000/svg" xmlns:xlink="http://www.w3.org/1999/xlink">
<defs>
<symbol id="icon-Amazon" viewBox="0 0 106 32">
<path fill="#b4afaf" style="fill: var(--color-svg-shopp-list-dark, #b4afaf)" d="M65.759 24.999c-6.154 4.536-15.073 6.956-22.753 6.956-10.768 0-20.462-3.983-27.796-10.607-0.576-0.521-0.060-1.231 0.631-0.825 7.915 4.605 17.701 7.375 27.809 7.375 6.818 0 14.317-1.411 21.213-4.338 1.042-0.443 1.913 0.682 0.894 1.438z"></path>
<path fill="#b4afaf" style="fill: var(--color-svg-shopp-list-dark, #b4afaf)" d="M68.318 22.072c-0.784-1.005-5.2-0.475-7.182-0.24-0.604 0.074-0.696-0.452-0.152-0.83 3.517-2.475 9.288-1.761 9.961-0.931 0.673 0.834-0.175 6.619-3.48 9.38-0.507 0.424-0.991 0.198-0.765-0.364 0.742-1.853 2.406-6.006 1.618-7.016z"></path>
<path fill="#221f1f" style="fill: var(--color-svg-shopp-list-dark, #221f1f)" d="M61.274 3.528v-2.406c0-0.364 0.277-0.608 0.608-0.608h10.773c0.346 0 0.622 0.249 0.622 0.608v2.060c-0.005 0.346-0.295 0.797-0.811 1.512l-5.582 7.97c2.074-0.051 4.264 0.258 6.145 1.318 0.424 0.24 0.539 0.59 0.572 0.936v2.568c0 0.35-0.387 0.761-0.793 0.549-3.314-1.738-7.716-1.927-11.381 0.018-0.373 0.203-0.765-0.203-0.765-0.553v-2.438c0-0.392 0.005-1.060 0.396-1.655l6.467-9.274h-5.628c-0.346 0-0.622-0.244-0.622-0.604z"></path>
<path fill="#221f1f" style="fill: var(--color-svg-shopp-list-dark, #221f1f)" d="M21.978 18.541h-3.277c-0.313-0.023-0.562-0.258-0.585-0.558v-16.82c0-0.337 0.281-0.604 0.631-0.604h3.056c0.318 0.014 0.572 0.258 0.595 0.562v2.199h0.060c0.797-2.125 2.296-3.116 4.315-3.116 2.051 0 3.333 0.991 4.255 3.116 0.793-2.125 2.595-3.116 4.527-3.116 1.374 0 2.876 0.567 3.794 1.839 1.037 1.415 0.825 3.471 0.825 5.273l-0.005 10.616c0 0.337-0.281 0.608-0.632 0.608h-3.273c-0.327-0.023-0.59-0.286-0.59-0.608v-8.915c0-0.71 0.065-2.48-0.092-3.153-0.244-1.129-0.977-1.447-1.927-1.447-0.793 0-1.623 0.53-1.959 1.378s-0.304 2.268-0.304 3.222v8.915c0 0.337-0.281 0.608-0.631 0.608h-3.273c-0.332-0.023-0.59-0.286-0.59-0.608l-0.005-8.915c0-1.876 0.309-4.637-2.019-4.637-2.355 0-2.263 2.692-2.263 4.637v8.915c0 0.337-0.281 0.608-0.631 0.608z"></path>
<path fill="#221f1f" style="fill: var(--color-svg-shopp-list-dark, #221f1f)" d="M82.552 0.205c4.863 0 7.495 4.176 7.495 9.486 0 5.13-2.909 9.201-7.495 9.201-4.775 0-7.375-4.176-7.375-9.38 0-5.236 2.632-9.307 7.375-9.307zM82.58 3.639c-2.415 0-2.568 3.291-2.568 5.342 0 2.056-0.032 6.444 2.54 6.444 2.54 0 2.66-3.54 2.66-5.697 0-1.42-0.060-3.116-0.489-4.462-0.369-1.171-1.102-1.627-2.143-1.627z"></path>
<path fill="#221f1f" style="fill: var(--color-svg-shopp-list-dark, #221f1f)" d="M96.353 18.541h-3.264c-0.327-0.023-0.59-0.286-0.59-0.608l-0.005-16.825c0.028-0.309 0.3-0.549 0.632-0.549h3.038c0.286 0.014 0.521 0.207 0.585 0.47v2.572h0.060c0.917-2.3 2.203-3.397 4.467-3.397 1.47 0 2.904 0.53 3.826 1.982 0.857 1.346 0.857 3.609 0.857 5.236v10.588c-0.037 0.295-0.309 0.53-0.632 0.53h-3.287c-0.3-0.023-0.549-0.244-0.581-0.53v-9.136c0-1.839 0.212-4.531-2.051-4.531-0.797 0-1.53 0.535-1.895 1.346-0.461 1.028-0.521 2.051-0.521 3.185v9.058c-0.005 0.337-0.29 0.608-0.641 0.608z"></path>
<path fill="#221f1f" style="fill: var(--color-svg-shopp-list-dark, #221f1f)" d="M52.687 10.507v-0.71c-2.369 0-4.872 0.507-4.872 3.3 0 1.415 0.733 2.374 1.991 2.374 0.922 0 1.747-0.567 2.268-1.489 0.645-1.134 0.613-2.199 0.613-3.476zM55.992 18.495c-0.217 0.194-0.53 0.207-0.774 0.078-1.088-0.903-1.281-1.323-1.881-2.185-1.798 1.835-3.070 2.383-5.402 2.383-2.757 0-4.905-1.701-4.905-5.107 0-2.66 1.443-4.471 3.494-5.356 1.779-0.784 4.264-0.922 6.163-1.139v-0.424c0-0.779 0.060-1.701-0.396-2.374-0.401-0.604-1.166-0.853-1.839-0.853-1.249 0-2.365 0.641-2.637 1.968-0.055 0.295-0.272 0.585-0.567 0.599l-3.181-0.341c-0.267-0.060-0.562-0.277-0.489-0.687 0.733-3.854 4.213-5.015 7.329-5.015 1.595 0 3.678 0.424 4.937 1.632 1.595 1.489 1.443 3.476 1.443 5.638v5.107c0 1.535 0.636 2.208 1.235 3.038 0.212 0.295 0.258 0.65-0.009 0.871-0.668 0.558-1.858 1.595-2.512 2.176l-0.009-0.009z"></path>
<path fill="#221f1f" style="fill: var(--color-svg-shopp-list-dark, #221f1f)" d="M9.721 10.507v-0.71c-2.369 0-4.872 0.507-4.872 3.3 0 1.415 0.733 2.374 1.991 2.374 0.922 0 1.747-0.567 2.268-1.489 0.645-1.134 0.613-2.199 0.613-3.476zM13.026 18.495c-0.217 0.194-0.53 0.207-0.774 0.078-1.088-0.903-1.281-1.323-1.881-2.185-1.798 1.835-3.070 2.383-5.402 2.383-2.756 0-4.905-1.701-4.905-5.107 0-2.66 1.443-4.471 3.494-5.356 1.779-0.784 4.264-0.922 6.163-1.139v-0.424c0-0.779 0.060-1.701-0.396-2.374-0.401-0.604-1.166-0.853-1.839-0.853-1.249 0-2.365 0.641-2.637 1.968-0.055 0.295-0.272 0.585-0.567 0.599l-3.181-0.341c-0.267-0.060-0.562-0.277-0.489-0.687 0.733-3.854 4.213-5.015 7.329-5.015 1.595 0 3.678 0.424 4.937 1.632 1.595 1.489 1.443 3.476 1.443 5.638v5.107c0 1.535 0.636 2.208 1.235 3.038 0.212 0.295 0.258 0.65-0.009 0.871-0.668 0.558-1.858 1.595-2.512 2.176l-0.009-0.009z"></path>
</symbol>
<symbol id="icon-apple-books" viewBox="0 0 32 32">
<path fill="#000" style="fill: var(--color3, #b4afaf)" d="M8.722 28h14.556c2.608 0 4.722-2.114 4.722-4.722v-14.556c0-2.608-2.114-4.722-4.722-4.722h-14.556c-2.608 0-4.722 2.114-4.722 4.722v14.556c0 2.608 2.114 4.722 4.722 4.722z"></path>
<path fill="#fff" style="fill: var(--color4, #fff)" d="M15.333 22.667c-1.565-2.903-5.333-3.333-8-0.667v-10.667c2.667-2.667 6-2 8 0v11.333z"></path>
<path fill="#fff" style="fill: var(--color4, #fff)" d="M16.667 22.667c1.565-2.903 5.333-3.333 8-0.667v-10.667c-2.667-2.667-6-2-8 0v11.333z"></path>
</symbol>
<symbol id="icon-book-shop" viewBox="0 0 32 32">
<path style="fill: var(--color-svg-shopp-list-dark)" d="M30.857 15.888c-0.045-0.048-0.113-0.060-0.17-0.030l-14.653 7.867c-1.33-1.584-1.312-6.093 0.054-7.596l14.731-7.909c0.050-0.027 0.082-0.082 0.082-0.142s-0.031-0.115-0.082-0.142l-14.753-7.921c-0.042-0.022-0.091-0.022-0.132 0l-14.753 7.921c-0.014 0.008-0.027 0.018-0.038 0.030-1.524 1.637-1.524 6.508 0 8.145 0.011 0.012 0.024 0.022 0.038 0.030l14.729 7.908c0.647 0.71 1.049 2.175 1.049 3.832 0 1.439-0.303 2.733-0.807 3.514-0.007-0.004-0.013-0.010-0.020-0.014l-14.753-7.921c-0.146-0.078-0.323-0.015-0.396 0.141s-0.014 0.347 0.132 0.425l14.753 7.921c0.015 0.008 0.032 0.013 0.047 0.019 0.025 0.020 0.054 0.033 0.084 0.033 0.022 0 0.045-0.005 0.066-0.017l14.753-7.921c0.014-0.008 0.027-0.018 0.038-0.030 1.524-1.636 1.524-6.508 0-8.144zM3.3 15.458l-1.477-0.809 0.027-0.686 0.226 0.124 0.091-2.321-0.226-0.124 0.027-0.681 1.45 0.794c0.645 0.353 0.94 0.849 0.917 1.424-0.017 0.443-0.115 0.611-0.413 0.609 0.276 0.259 0.498 0.666 0.478 1.178-0.029 0.743-0.349 0.903-1.099 0.492zM7.481 15.882c-0.047 1.192-0.565 1.652-1.444 1.171-0.812-0.445-1.367-1.4-1.315-2.719 0.045-1.14 0.636-1.619 1.44-1.179 0.952 0.522 1.365 1.54 1.318 2.726zM10.552 17.564c-0.047 1.192-0.565 1.652-1.444 1.171-0.813-0.445-1.367-1.4-1.315-2.719 0.045-1.14 0.636-1.619 1.44-1.179 0.952 0.521 1.365 1.539 1.318 2.726zM13.804 21.208l-1.516-0.83 0.027-0.686 0.264 0.145-0.385-1.126-0.301 0.175-0.022 0.564 0.21 0.115-0.027 0.686-1.224-0.671 0.027-0.686 0.21 0.115 0.091-2.321-0.21-0.115 0.027-0.681 1.224 0.67-0.027 0.68-0.21-0.115-0.034 0.86 0.756-0.464-0.28-0.153 0.027-0.68 1.294 0.709-0.027 0.681-0.225-0.124-0.589 0.351 0.72 2.092 0.225 0.124-0.027 0.685zM20.060 28.194c-0.404 0.214-0.68 0.095-0.83-0.080l-0.048 0.461-0.699 0.371 0.012-1.433 0.743-0.394c-0.004 0.478 0.331 0.38 0.498 0.302 0.14-0.074 0.34-0.226 0.342-0.465 0.004-0.444-1.531 0.558-1.518-0.892 0.008-0.842 0.569-1.52 0.961-1.727 0.335-0.178 0.673-0.204 0.829 0.137l0.044-0.499 0.686-0.364-0.012 1.428-0.723 0.383c0.004-0.421-0.226-0.537-0.506-0.389-0.116 0.062-0.276 0.249-0.278 0.448-0.005 0.586 1.577-0.39 1.565 0.947-0.007 0.888-0.593 1.515-1.068 1.767zM24.411 22.59l-0.232 0.123-0.021 2.474 0.232-0.123-0.006 0.75-1.297 0.689 0.006-0.751 0.236-0.125 0.007-0.859-0.758 0.403-0.007 0.859 0.247-0.131-0.006 0.75-1.293 0.687 0.006-0.751 0.22-0.116 0.021-2.474-0.22 0.116 0.007-0.751 1.293-0.686-0.007 0.751-0.247 0.131-0.008 0.859 0.758-0.403 0.008-0.859-0.235 0.125 0.006-0.75 1.297-0.689-0.007 0.751zM26.17 24.968c-0.834 0.443-1.423 0.070-1.411-1.351 0.011-1.228 0.593-2.381 1.419-2.82 0.978-0.519 1.426 0.076 1.415 1.355-0.012 1.285-0.521 2.337-1.423 2.816zM29.294 21.583l-0.304 0.161-0.008 0.881 0.244-0.129-0.006 0.751-1.285 0.683 0.007-0.751 0.223-0.118 0.022-2.48-0.224 0.119 0.006-0.745 1.293-0.687c0.926-0.492 1.097-0.016 1.091 0.632-0.006 0.751-0.488 1.38-1.059 1.684z"></path>
<path style="fill: var(--color-svg-shopp-list-dark)" d="M3.215 13.773l-0.299-0.164-0.036 0.918 0.311 0.17c0.163 0.089 0.322 0.004 0.333-0.281 0.011-0.269-0.094-0.526-0.308-0.643z"></path>
<path style="fill: var(--color-svg-shopp-list-dark)" d="M6.126 13.966c-0.237-0.135-0.419 0.24-0.444 0.894-0.027 0.691 0.138 1.229 0.387 1.365 0.245 0.134 0.414-0.22 0.439-0.875 0.025-0.638-0.083-1.22-0.382-1.384z"></path>
<path style="fill: var(--color-svg-shopp-list-dark)" d="M3.457 12.881c0.009-0.243-0.094-0.444-0.242-0.525l-0.245-0.134-0.031 0.791 0.237 0.13c0.206 0.113 0.27-0.008 0.281-0.262z"></path>
<path style="fill: var(--color-svg-shopp-list-dark)" d="M9.197 15.647c-0.237-0.135-0.418 0.24-0.444 0.894-0.027 0.691 0.138 1.229 0.387 1.365 0.244 0.134 0.413-0.221 0.439-0.875 0.025-0.638-0.084-1.22-0.383-1.384z"></path>
<path style="fill: var(--color-svg-shopp-list-dark)" d="M29.204 20.034l-0.199 0.106-0.009 0.99 0.18-0.095c0.231-0.123 0.392-0.379 0.395-0.68 0.003-0.336-0.135-0.444-0.367-0.321z"></path>
<path style="fill: var(--color-svg-shopp-list-dark)" d="M26.166 21.675c-0.243 0.124-0.415 0.713-0.421 1.418-0.007 0.745 0.177 1.118 0.433 0.982 0.252-0.133 0.411-0.688 0.417-1.393 0.006-0.688-0.121-1.17-0.428-1.007z"></path>
<path style="fill: var(--color-svg-shopp-list-dark)" d="M16.113 22.628c0.006-0.003 0.013-0.004 0.019-0.007l14.492-7.781v-0.708c-0.001 0-0.002 0.001-0.003 0.001l-14.508 7.789v0.706z"></path>
<path style="fill: var(--color-svg-shopp-list-dark)" d="M30.624 12.547c-0.001 0-0.002 0.001-0.003 0.001l-14.508 7.789v0.706c0.006-0.003 0.013-0.004 0.019-0.007l14.492-7.781v-0.708z"></path>
<path style="fill: var(--color-svg-shopp-list-dark)" d="M30.624 10.963c-0.001 0-0.002 0.001-0.003 0.001l-14.508 7.789v0.706c0.006-0.003 0.013-0.004 0.019-0.007l14.492-7.781v-0.708z"></path>
<path style="fill: var(--color-svg-shopp-list-dark)" d="M30.624 9.379c-0.001 0-0.002 0.001-0.003 0.001l-14.508 7.789v0.706c0.006-0.003 0.013-0.004 0.019-0.007l14.492-7.781v-0.708z"></path>
<path style="fill: var(--color-svg-shopp-list-dark)" d="M1.421 22.596l14.336 7.883v-0.712l-14.303-7.865c-0.011-0.006-0.022-0.010-0.033-0.014v0.708z"></path>
<path style="fill: var(--color-svg-shopp-list-dark)" d="M1.421 21.164l14.336 7.883v-0.712l-14.303-7.865c-0.011-0.006-0.022-0.010-0.033-0.014v0.708z"></path>
<path style="fill: var(--color-svg-shopp-list-dark)" d="M1.421 19.62l14.336 7.883v-0.711l-14.336-7.884z"></path>
<path style="fill: var(--color-svg-shopp-list-dark)" d="M15.756 25.207l-14.336-7.884v0.712l14.336 7.883z"></path>
</symbol>
</defs>
</svg>
