<svg xmlns="http://www.w3.org/2000/svg" fill="none" viewBox="0 0 78 14">
  <path fill="#000" d="M9.7 3.73C9.7 1.66 8.17.5 5.53.5H0v12.87h5.83c2.67 0 4.38-1.28 4.38-3.76 0-1.93-1.16-2.92-2.5-3.15v-.04c1.06-.36 2-1.1 2-2.68Zm-7.56 2.1V2.3h3.44c1.28 0 1.98.63 1.98 1.76 0 1.14-.58 1.75-2.1 1.75H2.13Zm0 1.6H5.9c1.35 0 2.16.73 2.16 2.04 0 1.21-.55 2.07-2.39 2.07H2.14V7.42Zm13.56 6.2c-2.88 0-4.62-2-4.62-4.86 0-2.86 1.74-4.86 4.62-4.86s4.63 2 4.63 4.86c0 2.86-1.75 4.86-4.63 4.86Zm0-1.55c1.8 0 2.74-1.42 2.74-3.3 0-1.92-.94-3.32-2.74-3.32-1.8 0-2.73 1.4-2.73 3.31 0 1.9.93 3.31 2.73 3.31Zm10.07 1.55c-2.88 0-4.62-2-4.62-4.86 0-2.86 1.74-4.86 4.62-4.86s4.63 2 4.63 4.86c0 2.86-1.75 4.86-4.63 4.86Zm0-1.55c1.8 0 2.74-1.42 2.74-3.3 0-1.92-.94-3.32-2.74-3.32-1.8 0-2.73 1.4-2.73 3.31 0 1.9.93 3.31 2.73 3.31ZM31.7.5v12.86h1.9v-3.33l1.27-1.2 2.9 4.53h2.27l-3.87-5.78 3.5-3.42h-2.33l-3.74 3.7V.48h-1.9Zm12.9 7.3c-1.34-.3-2.36-.38-2.36-1.31 0-.65.61-1.08 1.74-1.08 1.48 0 1.84.73 1.97 1.45h1.83c-.12-1.6-1.31-2.95-3.81-2.95-2.3 0-3.64 1.2-3.64 2.72 0 2.09 1.98 2.38 3.44 2.72 1.35.32 2.45.41 2.45 1.56 0 .58-.56 1.23-1.88 1.23-1.94 0-2.37-.85-2.46-1.84h-1.84c.1 1.95 1.37 3.33 4.34 3.33 2.23 0 3.74-1.1 3.74-2.86 0-2.2-1.83-2.57-3.52-2.97Zm9.7-3.89c-1.54 0-2.5.72-2.98 1.44h-.04V.5h-1.89v12.87h1.89v-5.6c0-1.36.99-2.25 2.38-2.25 1.31 0 1.83.8 1.83 2.04v5.81h1.91V7.01c0-2.1-1.35-3.1-3.1-3.1Zm8.9 8.17c-1.68 0-2.67-1.27-2.67-2.82h7.06c0-3.28-1.46-5.35-4.43-5.35-2.77 0-4.52 1.87-4.52 4.86 0 2.88 1.75 4.86 4.61 4.86 2.36 0 3.73-1.33 4.2-3.08h-1.9c-.16.56-.79 1.53-2.35 1.53Zm-.04-6.67c1.53 0 2.54 1.02 2.54 2.44h-5.17c0-1.42 1.1-2.44 2.63-2.44ZM68.92.5v12.86h1.9V.5h-1.9ZM77 2.04V.5c-.38-.07-.8-.12-1.26-.12-1.51 0-2.34.68-2.34 2.62v1.17h-1.3v1.55h1.31v7.65h1.9V5.71H77V4.16h-1.7v-1c0-1.05.48-1.17 1.7-1.12Z"/>
</svg>
