<svg width="20" height="20" viewBox="0 0 20 20" fill="none" xmlns="http://www.w3.org/2000/svg">
<path d="M15.8333 5.83329H13.3333V4.99996C13.3333 4.1159 12.9821 3.26806 12.357 2.64294C11.7319 2.01782 10.884 1.66663 9.99999 1.66663C9.11594 1.66663 8.26809 2.01782 7.64297 2.64294C7.01785 3.26806 6.66666 4.1159 6.66666 4.99996V5.83329H4.16666C3.94565 5.83329 3.73369 5.92109 3.57741 6.07737C3.42113 6.23365 3.33333 6.44561 3.33333 6.66663V15.8333C3.33333 16.4963 3.59672 17.1322 4.06556 17.6011C4.5344 18.0699 5.17029 18.3333 5.83333 18.3333H14.1667C14.8297 18.3333 15.4656 18.0699 15.9344 17.6011C16.4033 17.1322 16.6667 16.4963 16.6667 15.8333V6.66663C16.6667 6.44561 16.5789 6.23365 16.4226 6.07737C16.2663 5.92109 16.0543 5.83329 15.8333 5.83329ZM8.33333 4.99996C8.33333 4.55793 8.50892 4.13401 8.82148 3.82145C9.13404 3.50889 9.55796 3.33329 9.99999 3.33329C10.442 3.33329 10.8659 3.50889 11.1785 3.82145C11.4911 4.13401 11.6667 4.55793 11.6667 4.99996V5.83329H8.33333V4.99996ZM15 15.8333C15 16.0543 14.9122 16.2663 14.7559 16.4225C14.5996 16.5788 14.3877 16.6666 14.1667 16.6666H5.83333C5.61231 16.6666 5.40035 16.5788 5.24407 16.4225C5.08779 16.2663 4.99999 16.0543 4.99999 15.8333V7.49996H6.66666V8.33329C6.66666 8.55431 6.75446 8.76627 6.91074 8.92255C7.06702 9.07883 7.27898 9.16662 7.49999 9.16662C7.72101 9.16662 7.93297 9.07883 8.08925 8.92255C8.24553 8.76627 8.33333 8.55431 8.33333 8.33329V7.49996H11.6667V8.33329C11.6667 8.55431 11.7545 8.76627 11.9107 8.92255C12.067 9.07883 12.279 9.16662 12.5 9.16662C12.721 9.16662 12.933 9.07883 13.0892 8.92255C13.2455 8.76627 13.3333 8.55431 13.3333 8.33329V7.49996H15V15.8333Z" fill="#111111"/>
</svg>
